<svg width="32" height="32" xmlns="http://www.w3.org/2000/svg">

 <g>
  <title>background</title>
  <rect fill="none" id="canvas_background" height="402" width="582" y="-1" x="-1"/>
 </g>
 <g>
  <title>Layer 1</title>
  <path id="cloud_1_" fill="#ffffff" d="m30.366,18.351c0,-2.387 -1.953,-4.373 -4.517,-4.795c-0.048,-0.76 -0.209,-1.525 -0.481,-2.278c-1.549,-4.276 -6.273,-6.487 -10.549,-4.939c-2.578,0.933 -4.405,3.02 -5.111,5.466c-0.495,-0.105 -1.012,-0.163 -1.543,-0.163c-3.621,0 -6.531,2.595 -6.531,5.794c0,2.973 2.447,5.421 5.821,5.755l0,-0.019l17.994,0l0,0.032c2.923,-0.256 4.917,-2.331 4.917,-4.853z"/>
 </g>
</svg>